<?xml version="1.0" encoding="UTF-8"?>
<svg xmlns="http://www.w3.org/2000/svg" xmlns:xlink="http://www.w3.org/1999/xlink" width="1280" height="720" viewBox="0 0 1280 720">
<defs>
<g>
<g id="glyph-0-0">
<path d="M 2.941406 0.136719 C 2.59375 0.136719 2.265625 0.0703125 1.949219 -0.0664062 C 1.632812 -0.199219 1.355469 -0.394531 1.109375 -0.652344 C 0.867188 -0.90625 0.675781 -1.21875 0.53125 -1.585938 C 0.390625 -1.953125 0.316406 -2.367188 0.316406 -2.828125 C 0.316406 -3.292969 0.386719 -3.710938 0.527344 -4.085938 C 0.667969 -4.460938 0.863281 -4.785156 1.113281 -5.058594 C 1.359375 -5.324219 1.652344 -5.535156 1.988281 -5.679688 C 2.324219 -5.828125 2.683594 -5.898438 3.066406 -5.898438 C 3.351562 -5.898438 3.609375 -5.863281 3.835938 -5.792969 C 4.066406 -5.722656 4.289062 -5.625 4.496094 -5.496094 L 4.664062 -5.773438 L 4.988281 -5.773438 L 5.023438 -3.714844 L 4.691406 -3.714844 C 4.648438 -3.914062 4.582031 -4.132812 4.496094 -4.367188 C 4.410156 -4.601562 4.308594 -4.800781 4.191406 -4.964844 C 4.0625 -5.148438 3.90625 -5.292969 3.726562 -5.398438 C 3.550781 -5.503906 3.34375 -5.554688 3.113281 -5.554688 C 2.851562 -5.554688 2.605469 -5.496094 2.382812 -5.378906 C 2.15625 -5.261719 1.960938 -5.089844 1.792969 -4.863281 C 1.636719 -4.640625 1.511719 -4.363281 1.425781 -4.023438 C 1.335938 -3.683594 1.289062 -3.304688 1.289062 -2.886719 C 1.289062 -2.519531 1.335938 -2.179688 1.429688 -1.871094 C 1.523438 -1.5625 1.65625 -1.292969 1.832031 -1.058594 C 2.003906 -0.828125 2.210938 -0.648438 2.445312 -0.515625 C 2.683594 -0.386719 2.949219 -0.320312 3.242188 -0.320312 C 3.460938 -0.320312 3.664062 -0.355469 3.847656 -0.425781 C 4.03125 -0.496094 4.191406 -0.585938 4.324219 -0.699219 C 4.460938 -0.820312 4.582031 -0.953125 4.683594 -1.105469 C 4.785156 -1.257812 4.871094 -1.425781 4.9375 -1.601562 L 5.242188 -1.457031 C 5.007812 -0.882812 4.699219 -0.476562 4.3125 -0.230469 C 3.929688 0.015625 3.472656 0.136719 2.941406 0.136719 Z "/>
</g>
<g id="glyph-0-1">
<path d="M 2.238281 0 L 0.300781 0 L 0.300781 -0.269531 C 0.363281 -0.273438 0.429688 -0.28125 0.496094 -0.285156 C 0.5625 -0.289062 0.617188 -0.300781 0.667969 -0.316406 C 0.742188 -0.339844 0.800781 -0.382812 0.835938 -0.445312 C 0.871094 -0.507812 0.890625 -0.585938 0.890625 -0.683594 L 0.890625 -3.15625 C 0.890625 -3.246094 0.871094 -3.324219 0.832031 -3.394531 C 0.792969 -3.46875 0.738281 -3.527344 0.667969 -3.578125 C 0.617188 -3.609375 0.542969 -3.636719 0.445312 -3.660156 C 0.347656 -3.683594 0.257812 -3.699219 0.175781 -3.703125 L 0.175781 -3.972656 L 1.589844 -4.0625 L 1.648438 -4.003906 L 1.648438 -0.730469 C 1.648438 -0.636719 1.667969 -0.558594 1.703125 -0.496094 C 1.738281 -0.433594 1.796875 -0.386719 1.875 -0.359375 C 1.933594 -0.332031 1.992188 -0.3125 2.046875 -0.300781 C 2.105469 -0.285156 2.167969 -0.273438 2.238281 -0.269531 L 2.238281 0 M 1.730469 -5.644531 C 1.730469 -5.488281 1.679688 -5.355469 1.578125 -5.238281 C 1.476562 -5.125 1.347656 -5.066406 1.199219 -5.066406 C 1.0625 -5.066406 0.941406 -5.121094 0.839844 -5.230469 C 0.738281 -5.339844 0.6875 -5.464844 0.6875 -5.605469 C 0.6875 -5.757812 0.738281 -5.886719 0.839844 -5.996094 C 0.941406 -6.109375 1.0625 -6.164062 1.199219 -6.164062 C 1.355469 -6.164062 1.480469 -6.113281 1.582031 -6.007812 C 1.679688 -5.902344 1.730469 -5.78125 1.730469 -5.644531 Z "/>
</g>
<g id="glyph-0-2">
<path d="M 3.363281 -3.496094 C 3.363281 -3.355469 3.332031 -3.234375 3.261719 -3.128906 C 3.195312 -3.019531 3.089844 -2.964844 2.949219 -2.964844 C 2.796875 -2.964844 2.683594 -3.003906 2.601562 -3.085938 C 2.523438 -3.164062 2.480469 -3.25 2.480469 -3.34375 C 2.480469 -3.40625 2.488281 -3.457031 2.496094 -3.507812 C 2.503906 -3.554688 2.515625 -3.605469 2.523438 -3.652344 C 2.394531 -3.652344 2.246094 -3.601562 2.074219 -3.5 C 1.902344 -3.394531 1.757812 -3.25 1.640625 -3.058594 L 1.640625 -0.722656 C 1.640625 -0.628906 1.65625 -0.550781 1.695312 -0.492188 C 1.730469 -0.433594 1.789062 -0.386719 1.867188 -0.359375 C 1.933594 -0.332031 2.023438 -0.3125 2.128906 -0.296875 C 2.238281 -0.285156 2.332031 -0.273438 2.410156 -0.269531 L 2.410156 0 L 0.292969 0 L 0.292969 -0.269531 C 0.355469 -0.273438 0.417969 -0.28125 0.484375 -0.285156 C 0.550781 -0.289062 0.609375 -0.300781 0.660156 -0.316406 C 0.734375 -0.339844 0.792969 -0.382812 0.828125 -0.445312 C 0.863281 -0.507812 0.882812 -0.585938 0.882812 -0.683594 L 0.882812 -3.15625 C 0.882812 -3.242188 0.863281 -3.324219 0.824219 -3.40625 C 0.785156 -3.488281 0.730469 -3.550781 0.660156 -3.601562 C 0.609375 -3.632812 0.546875 -3.65625 0.476562 -3.671875 C 0.40625 -3.6875 0.328125 -3.699219 0.25 -3.703125 L 0.25 -3.972656 L 1.582031 -4.0625 L 1.640625 -4.003906 L 1.640625 -3.4375 L 1.660156 -3.4375 C 1.828125 -3.65625 2.015625 -3.824219 2.222656 -3.9375 C 2.429688 -4.050781 2.617188 -4.109375 2.789062 -4.109375 C 2.957031 -4.109375 3.097656 -4.054688 3.203125 -3.941406 C 3.3125 -3.832031 3.363281 -3.683594 3.363281 -3.496094 Z "/>
</g>
<g id="glyph-0-3">
<path d="M 2.148438 0.105469 C 1.566406 0.105469 1.113281 -0.0859375 0.785156 -0.472656 C 0.457031 -0.855469 0.292969 -1.375 0.292969 -2.023438 C 0.292969 -2.304688 0.335938 -2.566406 0.425781 -2.8125 C 0.511719 -3.058594 0.640625 -3.28125 0.808594 -3.484375 C 0.96875 -3.675781 1.171875 -3.832031 1.410156 -3.949219 C 1.652344 -4.066406 1.917969 -4.125 2.203125 -4.125 C 2.59375 -4.125 2.914062 -4.03125 3.160156 -3.84375 C 3.410156 -3.65625 3.53125 -3.398438 3.53125 -3.070312 C 3.53125 -2.9375 3.5 -2.816406 3.433594 -2.710938 C 3.367188 -2.609375 3.261719 -2.554688 3.113281 -2.554688 C 2.953125 -2.554688 2.828125 -2.597656 2.742188 -2.675781 C 2.652344 -2.757812 2.609375 -2.847656 2.609375 -2.949219 C 2.609375 -3.070312 2.625 -3.195312 2.65625 -3.324219 C 2.691406 -3.453125 2.707031 -3.546875 2.714844 -3.605469 C 2.664062 -3.691406 2.59375 -3.746094 2.496094 -3.773438 C 2.402344 -3.800781 2.296875 -3.816406 2.1875 -3.816406 C 2.054688 -3.816406 1.933594 -3.789062 1.816406 -3.734375 C 1.699219 -3.675781 1.582031 -3.574219 1.472656 -3.425781 C 1.371094 -3.289062 1.289062 -3.105469 1.230469 -2.875 C 1.167969 -2.644531 1.136719 -2.371094 1.136719 -2.050781 C 1.136719 -1.546875 1.246094 -1.132812 1.46875 -0.816406 C 1.695312 -0.496094 1.988281 -0.335938 2.351562 -0.335938 C 2.613281 -0.335938 2.832031 -0.402344 3.011719 -0.53125 C 3.1875 -0.65625 3.351562 -0.851562 3.503906 -1.105469 L 3.765625 -0.9375 C 3.585938 -0.617188 3.347656 -0.363281 3.054688 -0.175781 C 2.761719 0.0117188 2.460938 0.105469 2.148438 0.105469 Z "/>
</g>
<g id="glyph-0-4">
<path d="M 2.171875 0 L 0.214844 0 L 0.214844 -0.269531 C 0.277344 -0.273438 0.34375 -0.28125 0.414062 -0.285156 C 0.484375 -0.292969 0.542969 -0.304688 0.589844 -0.316406 C 0.664062 -0.34375 0.722656 -0.382812 0.761719 -0.445312 C 0.800781 -0.507812 0.816406 -0.585938 0.816406 -0.683594 L 0.816406 -5.335938 C 0.816406 -5.433594 0.796875 -5.523438 0.753906 -5.609375 C 0.710938 -5.695312 0.65625 -5.761719 0.589844 -5.808594 C 0.542969 -5.84375 0.453125 -5.871094 0.320312 -5.898438 C 0.191406 -5.925781 0.0859375 -5.945312 0.0078125 -5.949219 L 0.0078125 -6.210938 L 1.519531 -6.296875 L 1.574219 -6.238281 L 1.574219 -0.730469 C 1.574219 -0.636719 1.59375 -0.558594 1.628906 -0.5 C 1.664062 -0.4375 1.71875 -0.390625 1.796875 -0.359375 C 1.859375 -0.332031 1.917969 -0.3125 1.976562 -0.296875 C 2.035156 -0.285156 2.097656 -0.273438 2.171875 -0.269531 Z "/>
</g>
<g id="glyph-0-5">
<path d="M 3.855469 -0.945312 C 3.6875 -0.625 3.464844 -0.367188 3.183594 -0.179688 C 2.898438 0.0117188 2.574219 0.105469 2.210938 0.105469 C 1.886719 0.105469 1.605469 0.046875 1.359375 -0.0664062 C 1.117188 -0.179688 0.917969 -0.332031 0.761719 -0.527344 C 0.605469 -0.722656 0.484375 -0.953125 0.410156 -1.210938 C 0.332031 -1.472656 0.292969 -1.75 0.292969 -2.039062 C 0.292969 -2.300781 0.335938 -2.554688 0.417969 -2.804688 C 0.5 -3.054688 0.621094 -3.28125 0.78125 -3.484375 C 0.9375 -3.675781 1.128906 -3.832031 1.355469 -3.949219 C 1.585938 -4.066406 1.84375 -4.125 2.128906 -4.125 C 2.421875 -4.125 2.671875 -4.078125 2.878906 -3.988281 C 3.089844 -3.894531 3.257812 -3.769531 3.390625 -3.609375 C 3.515625 -3.457031 3.605469 -3.277344 3.667969 -3.070312 C 3.730469 -2.867188 3.757812 -2.640625 3.757812 -2.402344 L 3.757812 -2.132812 L 1.101562 -2.132812 C 1.101562 -1.867188 1.128906 -1.628906 1.179688 -1.414062 C 1.226562 -1.199219 1.308594 -1.011719 1.414062 -0.847656 C 1.523438 -0.691406 1.660156 -0.566406 1.832031 -0.472656 C 2 -0.382812 2.207031 -0.335938 2.441406 -0.335938 C 2.683594 -0.335938 2.890625 -0.394531 3.066406 -0.507812 C 3.242188 -0.621094 3.410156 -0.824219 3.574219 -1.117188 L 3.855469 -0.945312 M 2.957031 -2.472656 C 2.957031 -2.625 2.945312 -2.789062 2.917969 -2.960938 C 2.894531 -3.132812 2.851562 -3.277344 2.796875 -3.394531 C 2.734375 -3.519531 2.648438 -3.621094 2.539062 -3.699219 C 2.429688 -3.777344 2.289062 -3.816406 2.121094 -3.816406 C 1.835938 -3.816406 1.597656 -3.699219 1.410156 -3.460938 C 1.222656 -3.226562 1.117188 -2.894531 1.101562 -2.472656 Z "/>
</g>
</g>
</defs>
<g fill="rgb(100%, 100%, 100%)" fill-opacity="1">
<use xlink:href="#glyph-0-0" x="30" y="27.641602"/>
<use xlink:href="#glyph-0-1" x="35" y="27.641602"/>
<use xlink:href="#glyph-0-2" x="37" y="27.641602"/>
<use xlink:href="#glyph-0-3" x="40" y="27.641602"/>
<use xlink:href="#glyph-0-4" x="44" y="27.641602"/>
<use xlink:href="#glyph-0-5" x="46" y="27.641602"/>
</g>
</svg>
