<?xml version="1.0" encoding="UTF-8"?>
<svg xmlns="http://www.w3.org/2000/svg" xmlns:xlink="http://www.w3.org/1999/xlink" width="1280" height="720" viewBox="0 0 1280 720">
<defs>
<g>
<g id="glyph-0-0">
<path d="M 5.054688 -3.355469 C 5.210938 -3.183594 5.324219 -2.996094 5.398438 -2.792969 C 5.472656 -2.585938 5.511719 -2.347656 5.511719 -2.078125 C 5.511719 -1.429688 5.269531 -0.898438 4.792969 -0.480469 C 4.316406 -0.0585938 3.722656 0.148438 3.015625 0.148438 C 2.6875 0.148438 2.363281 0.0976562 2.035156 -0.00390625 C 1.710938 -0.105469 1.429688 -0.226562 1.191406 -0.371094 L 0.96875 0.00390625 L 0.558594 0.00390625 L 0.484375 -2.5 L 0.902344 -2.5 C 0.988281 -2.191406 1.089844 -1.910156 1.203125 -1.664062 C 1.320312 -1.414062 1.46875 -1.179688 1.660156 -0.964844 C 1.839844 -0.761719 2.046875 -0.601562 2.285156 -0.480469 C 2.523438 -0.359375 2.800781 -0.300781 3.117188 -0.300781 C 3.355469 -0.300781 3.5625 -0.328125 3.738281 -0.390625 C 3.917969 -0.453125 4.058594 -0.542969 4.167969 -0.65625 C 4.28125 -0.769531 4.363281 -0.902344 4.414062 -1.054688 C 4.46875 -1.207031 4.496094 -1.382812 4.496094 -1.585938 C 4.496094 -1.875 4.410156 -2.148438 4.246094 -2.402344 C 4.082031 -2.65625 3.835938 -2.847656 3.511719 -2.976562 C 3.285156 -3.066406 3.03125 -3.164062 2.742188 -3.273438 C 2.453125 -3.378906 2.203125 -3.480469 1.996094 -3.578125 C 1.582031 -3.765625 1.261719 -4.007812 1.035156 -4.308594 C 0.804688 -4.609375 0.691406 -5 0.691406 -5.484375 C 0.691406 -5.761719 0.746094 -6.023438 0.859375 -6.261719 C 0.972656 -6.503906 1.136719 -6.71875 1.34375 -6.90625 C 1.542969 -7.085938 1.78125 -7.226562 2.050781 -7.328125 C 2.324219 -7.429688 2.605469 -7.480469 2.902344 -7.480469 C 3.238281 -7.480469 3.539062 -7.425781 3.804688 -7.324219 C 4.074219 -7.222656 4.316406 -7.101562 4.535156 -6.964844 L 4.746094 -7.3125 L 5.160156 -7.3125 L 5.199219 -4.886719 L 4.78125 -4.886719 C 4.707031 -5.164062 4.621094 -5.429688 4.527344 -5.683594 C 4.433594 -5.941406 4.3125 -6.167969 4.160156 -6.375 C 4.011719 -6.574219 3.832031 -6.734375 3.617188 -6.851562 C 3.40625 -6.972656 3.144531 -7.03125 2.835938 -7.03125 C 2.507812 -7.03125 2.230469 -6.925781 2 -6.714844 C 1.769531 -6.507812 1.65625 -6.25 1.65625 -5.949219 C 1.65625 -5.632812 1.726562 -5.371094 1.875 -5.160156 C 2.023438 -4.953125 2.238281 -4.78125 2.519531 -4.648438 C 2.769531 -4.527344 3.019531 -4.425781 3.261719 -4.335938 C 3.503906 -4.25 3.738281 -4.15625 3.964844 -4.054688 C 4.167969 -3.96875 4.367188 -3.867188 4.558594 -3.753906 C 4.75 -3.640625 4.914062 -3.507812 5.054688 -3.355469 Z "/>
</g>
<g id="glyph-0-1">
<path d="M 2.835938 0 L 0.382812 0 L 0.382812 -0.339844 C 0.460938 -0.347656 0.542969 -0.355469 0.625 -0.359375 C 0.710938 -0.367188 0.785156 -0.382812 0.84375 -0.402344 C 0.941406 -0.433594 1.011719 -0.488281 1.058594 -0.5625 C 1.105469 -0.640625 1.128906 -0.742188 1.128906 -0.867188 L 1.128906 -4 C 1.128906 -4.109375 1.105469 -4.210938 1.054688 -4.300781 C 1.003906 -4.394531 0.933594 -4.46875 0.84375 -4.53125 C 0.78125 -4.570312 0.683594 -4.605469 0.5625 -4.636719 C 0.4375 -4.664062 0.324219 -4.683594 0.222656 -4.691406 L 0.222656 -5.03125 L 2.015625 -5.144531 L 2.085938 -5.070312 L 2.085938 -0.929688 C 2.085938 -0.808594 2.109375 -0.707031 2.15625 -0.628906 C 2.203125 -0.550781 2.273438 -0.492188 2.375 -0.453125 C 2.449219 -0.421875 2.523438 -0.398438 2.59375 -0.378906 C 2.664062 -0.359375 2.746094 -0.347656 2.835938 -0.339844 L 2.835938 0 M 2.191406 -7.148438 C 2.191406 -6.953125 2.125 -6.78125 1.996094 -6.636719 C 1.867188 -6.488281 1.710938 -6.417969 1.519531 -6.417969 C 1.34375 -6.417969 1.191406 -6.488281 1.0625 -6.625 C 0.933594 -6.765625 0.871094 -6.925781 0.871094 -7.101562 C 0.871094 -7.292969 0.933594 -7.457031 1.0625 -7.597656 C 1.191406 -7.738281 1.34375 -7.808594 1.519531 -7.808594 C 1.714844 -7.808594 1.878906 -7.742188 2.003906 -7.609375 C 2.128906 -7.476562 2.191406 -7.324219 2.191406 -7.148438 Z "/>
</g>
<g id="glyph-0-2">
<path d="M 5.984375 0 L 3.5 0 L 3.5 -0.339844 C 3.578125 -0.347656 3.664062 -0.355469 3.761719 -0.359375 C 3.855469 -0.367188 3.933594 -0.382812 3.996094 -0.402344 C 4.089844 -0.433594 4.160156 -0.488281 4.207031 -0.5625 C 4.253906 -0.640625 4.277344 -0.742188 4.277344 -0.867188 L 4.277344 -3.480469 C 4.277344 -3.839844 4.191406 -4.117188 4.023438 -4.3125 C 3.851562 -4.511719 3.644531 -4.609375 3.398438 -4.609375 C 3.21875 -4.609375 3.050781 -4.578125 2.898438 -4.523438 C 2.746094 -4.464844 2.613281 -4.398438 2.496094 -4.3125 C 2.382812 -4.234375 2.292969 -4.148438 2.222656 -4.058594 C 2.15625 -3.96875 2.109375 -3.894531 2.078125 -3.839844 L 2.078125 -0.917969 C 2.078125 -0.800781 2.101562 -0.703125 2.148438 -0.628906 C 2.199219 -0.554688 2.269531 -0.496094 2.367188 -0.453125 C 2.4375 -0.417969 2.515625 -0.394531 2.601562 -0.375 C 2.683594 -0.359375 2.769531 -0.347656 2.859375 -0.339844 L 2.859375 0 L 0.371094 0 L 0.371094 -0.339844 C 0.449219 -0.347656 0.53125 -0.355469 0.617188 -0.359375 C 0.699219 -0.367188 0.773438 -0.382812 0.835938 -0.402344 C 0.929688 -0.433594 1.003906 -0.488281 1.050781 -0.5625 C 1.09375 -0.640625 1.117188 -0.742188 1.117188 -0.867188 L 1.117188 -4 C 1.117188 -4.117188 1.09375 -4.222656 1.042969 -4.324219 C 0.992188 -4.421875 0.925781 -4.5 0.835938 -4.5625 C 0.769531 -4.601562 0.691406 -4.632812 0.601562 -4.652344 C 0.515625 -4.671875 0.417969 -4.683594 0.3125 -4.691406 L 0.3125 -5.03125 L 2.003906 -5.144531 L 2.078125 -5.070312 L 2.078125 -4.355469 L 2.101562 -4.355469 C 2.183594 -4.4375 2.289062 -4.535156 2.414062 -4.652344 C 2.535156 -4.765625 2.652344 -4.859375 2.761719 -4.933594 C 2.890625 -5.015625 3.042969 -5.082031 3.214844 -5.140625 C 3.390625 -5.195312 3.589844 -5.222656 3.808594 -5.222656 C 4.296875 -5.222656 4.660156 -5.070312 4.894531 -4.765625 C 5.128906 -4.460938 5.246094 -4.054688 5.246094 -3.550781 L 5.246094 -0.90625 C 5.246094 -0.785156 5.269531 -0.691406 5.308594 -0.617188 C 5.351562 -0.542969 5.421875 -0.484375 5.519531 -0.441406 C 5.601562 -0.410156 5.675781 -0.386719 5.734375 -0.371094 C 5.792969 -0.355469 5.878906 -0.347656 5.984375 -0.339844 Z "/>
</g>
<g id="glyph-0-3">
<path d="M 4.886719 -1.195312 C 4.671875 -0.789062 4.386719 -0.46875 4.03125 -0.226562 C 3.671875 0.015625 3.261719 0.132812 2.796875 0.132812 C 2.390625 0.132812 2.03125 0.0625 1.722656 -0.0820312 C 1.417969 -0.226562 1.164062 -0.421875 0.964844 -0.671875 C 0.765625 -0.917969 0.617188 -1.207031 0.519531 -1.535156 C 0.421875 -1.867188 0.371094 -2.214844 0.371094 -2.582031 C 0.371094 -2.914062 0.421875 -3.234375 0.527344 -3.554688 C 0.632812 -3.871094 0.785156 -4.15625 0.988281 -4.410156 C 1.183594 -4.65625 1.429688 -4.851562 1.71875 -5.003906 C 2.007812 -5.152344 2.335938 -5.226562 2.695312 -5.226562 C 3.066406 -5.226562 3.382812 -5.167969 3.648438 -5.050781 C 3.914062 -4.933594 4.128906 -4.773438 4.292969 -4.570312 C 4.453125 -4.378906 4.570312 -4.152344 4.648438 -3.890625 C 4.722656 -3.628906 4.761719 -3.347656 4.761719 -3.042969 L 4.761719 -2.699219 L 1.398438 -2.699219 C 1.398438 -2.367188 1.429688 -2.0625 1.492188 -1.792969 C 1.554688 -1.519531 1.65625 -1.28125 1.792969 -1.074219 C 1.925781 -0.875 2.101562 -0.714844 2.320312 -0.601562 C 2.535156 -0.484375 2.792969 -0.429688 3.09375 -0.429688 C 3.398438 -0.429688 3.664062 -0.5 3.882812 -0.644531 C 4.105469 -0.785156 4.320312 -1.042969 4.527344 -1.417969 L 4.886719 -1.195312 M 3.746094 -3.132812 C 3.746094 -3.324219 3.730469 -3.53125 3.699219 -3.75 C 3.664062 -3.96875 3.613281 -4.152344 3.539062 -4.300781 C 3.460938 -4.457031 3.355469 -4.585938 3.214844 -4.6875 C 3.078125 -4.785156 2.902344 -4.835938 2.683594 -4.835938 C 2.324219 -4.835938 2.023438 -4.683594 1.785156 -4.386719 C 1.546875 -4.085938 1.417969 -3.667969 1.398438 -3.132812 Z "/>
</g>
<g id="glyph-0-4">
</g>
<g id="glyph-0-5">
<path d="M 5.183594 -0.09375 C 5.023438 -0.0351562 4.882812 0.0117188 4.761719 0.0507812 C 4.636719 0.0859375 4.5 0.101562 4.34375 0.101562 C 4.078125 0.101562 3.863281 0.0390625 3.703125 -0.0859375 C 3.542969 -0.210938 3.441406 -0.394531 3.398438 -0.632812 L 3.367188 -0.632812 C 3.140625 -0.386719 2.902344 -0.199219 2.648438 -0.0664062 C 2.390625 0.0625 2.082031 0.128906 1.722656 0.128906 C 1.339844 0.128906 1.027344 0.0117188 0.78125 -0.222656 C 0.535156 -0.457031 0.414062 -0.761719 0.414062 -1.140625 C 0.414062 -1.335938 0.441406 -1.511719 0.496094 -1.664062 C 0.550781 -1.820312 0.632812 -1.957031 0.742188 -2.082031 C 0.828125 -2.183594 0.941406 -2.277344 1.082031 -2.359375 C 1.222656 -2.4375 1.355469 -2.503906 1.480469 -2.550781 C 1.632812 -2.609375 1.949219 -2.71875 2.421875 -2.875 C 2.890625 -3.035156 3.210938 -3.15625 3.375 -3.246094 L 3.375 -3.757812 C 3.375 -3.800781 3.367188 -3.886719 3.347656 -4.015625 C 3.328125 -4.140625 3.289062 -4.261719 3.226562 -4.375 C 3.15625 -4.503906 3.0625 -4.613281 2.933594 -4.707031 C 2.808594 -4.804688 2.632812 -4.851562 2.402344 -4.851562 C 2.242188 -4.851562 2.097656 -4.824219 1.960938 -4.769531 C 1.824219 -4.71875 1.730469 -4.660156 1.675781 -4.601562 C 1.675781 -4.535156 1.691406 -4.433594 1.722656 -4.296875 C 1.757812 -4.164062 1.773438 -4.039062 1.773438 -3.925781 C 1.773438 -3.808594 1.71875 -3.699219 1.609375 -3.597656 C 1.503906 -3.496094 1.351562 -3.449219 1.160156 -3.449219 C 0.988281 -3.449219 0.863281 -3.507812 0.78125 -3.632812 C 0.699219 -3.753906 0.660156 -3.890625 0.660156 -4.039062 C 0.660156 -4.199219 0.714844 -4.351562 0.828125 -4.496094 C 0.9375 -4.640625 1.085938 -4.769531 1.261719 -4.882812 C 1.417969 -4.976562 1.605469 -5.058594 1.824219 -5.125 C 2.042969 -5.191406 2.257812 -5.226562 2.46875 -5.226562 C 2.757812 -5.226562 3.007812 -5.207031 3.222656 -5.167969 C 3.4375 -5.128906 3.632812 -5.042969 3.808594 -4.910156 C 3.984375 -4.785156 4.117188 -4.613281 4.207031 -4.394531 C 4.300781 -4.175781 4.34375 -3.894531 4.34375 -3.550781 C 4.34375 -3.058594 4.339844 -2.625 4.328125 -2.246094 C 4.320312 -1.863281 4.3125 -1.449219 4.3125 -1 C 4.3125 -0.867188 4.335938 -0.757812 4.382812 -0.679688 C 4.429688 -0.601562 4.5 -0.535156 4.597656 -0.480469 C 4.648438 -0.449219 4.730469 -0.429688 4.84375 -0.429688 C 4.953125 -0.425781 5.070312 -0.421875 5.183594 -0.421875 L 5.183594 -0.09375 M 3.386719 -2.8125 C 3.09375 -2.726562 2.839844 -2.644531 2.617188 -2.5625 C 2.398438 -2.476562 2.195312 -2.375 2.003906 -2.25 C 1.832031 -2.132812 1.699219 -1.996094 1.597656 -1.835938 C 1.5 -1.675781 1.449219 -1.484375 1.449219 -1.265625 C 1.449219 -0.980469 1.523438 -0.769531 1.671875 -0.632812 C 1.820312 -0.5 2.011719 -0.433594 2.242188 -0.433594 C 2.484375 -0.433594 2.699219 -0.492188 2.886719 -0.609375 C 3.070312 -0.730469 3.226562 -0.871094 3.355469 -1.03125 Z "/>
</g>
<g id="glyph-0-6">
<path d="M 5.9375 -0.09375 L 4.160156 0.0195312 L 4.082031 -0.0507812 L 4.082031 -0.527344 L 4.042969 -0.535156 C 3.863281 -0.335938 3.640625 -0.171875 3.378906 -0.046875 C 3.117188 0.0820312 2.847656 0.144531 2.570312 0.144531 C 2.28125 0.144531 2 0.078125 1.734375 -0.0507812 C 1.464844 -0.179688 1.230469 -0.359375 1.03125 -0.59375 C 0.828125 -0.828125 0.667969 -1.113281 0.546875 -1.449219 C 0.429688 -1.78125 0.371094 -2.148438 0.371094 -2.550781 C 0.371094 -2.917969 0.433594 -3.269531 0.5625 -3.597656 C 0.6875 -3.925781 0.863281 -4.214844 1.085938 -4.464844 C 1.296875 -4.695312 1.550781 -4.878906 1.855469 -5.015625 C 2.160156 -5.152344 2.46875 -5.222656 2.785156 -5.222656 C 3.023438 -5.222656 3.253906 -5.191406 3.484375 -5.132812 C 3.710938 -5.070312 3.90625 -4.996094 4.070312 -4.902344 L 4.070312 -6.671875 C 4.070312 -6.816406 4.046875 -6.949219 4 -7.066406 C 3.953125 -7.1875 3.882812 -7.277344 3.796875 -7.339844 C 3.703125 -7.40625 3.574219 -7.453125 3.410156 -7.480469 C 3.246094 -7.511719 3.070312 -7.53125 2.882812 -7.546875 L 2.882812 -7.867188 L 4.964844 -7.980469 L 5.039062 -7.902344 L 5.039062 -1.050781 C 5.039062 -0.929688 5.0625 -0.828125 5.109375 -0.746094 C 5.15625 -0.660156 5.226562 -0.589844 5.3125 -0.53125 C 5.378906 -0.488281 5.472656 -0.464844 5.597656 -0.453125 C 5.722656 -0.441406 5.835938 -0.4375 5.9375 -0.433594 L 5.9375 -0.09375 M 4.070312 -0.984375 L 4.070312 -3.957031 C 4.042969 -4.046875 4 -4.144531 3.9375 -4.246094 C 3.875 -4.351562 3.800781 -4.445312 3.707031 -4.53125 C 3.605469 -4.617188 3.492188 -4.6875 3.355469 -4.746094 C 3.222656 -4.800781 3.066406 -4.828125 2.890625 -4.828125 C 2.683594 -4.828125 2.492188 -4.777344 2.320312 -4.667969 C 2.148438 -4.5625 1.992188 -4.410156 1.859375 -4.210938 C 1.734375 -4.019531 1.632812 -3.773438 1.558594 -3.476562 C 1.484375 -3.179688 1.449219 -2.851562 1.449219 -2.488281 C 1.449219 -2.199219 1.476562 -1.9375 1.53125 -1.703125 C 1.585938 -1.46875 1.679688 -1.25 1.808594 -1.046875 C 1.929688 -0.855469 2.082031 -0.699219 2.269531 -0.582031 C 2.457031 -0.464844 2.679688 -0.40625 2.933594 -0.40625 C 3.210938 -0.40625 3.4375 -0.46875 3.617188 -0.585938 C 3.796875 -0.707031 3.949219 -0.839844 4.070312 -0.984375 Z "/>
</g>
<g id="glyph-0-7">
<path d="M 3.722656 0.175781 C 3.289062 0.175781 2.871094 0.0898438 2.46875 -0.0820312 C 2.070312 -0.253906 1.714844 -0.503906 1.40625 -0.824219 C 1.101562 -1.148438 0.855469 -1.542969 0.675781 -2.007812 C 0.492188 -2.476562 0.402344 -3 0.402344 -3.585938 C 0.402344 -4.167969 0.492188 -4.699219 0.667969 -5.175781 C 0.847656 -5.652344 1.09375 -6.0625 1.410156 -6.40625 C 1.722656 -6.746094 2.09375 -7.007812 2.519531 -7.195312 C 2.945312 -7.382812 3.398438 -7.472656 3.882812 -7.472656 C 4.242188 -7.472656 4.570312 -7.429688 4.863281 -7.339844 C 5.152344 -7.25 5.429688 -7.125 5.695312 -6.964844 L 5.90625 -7.3125 L 6.320312 -7.3125 L 6.367188 -4.707031 L 5.941406 -4.707031 C 5.886719 -4.960938 5.804688 -5.234375 5.695312 -5.53125 C 5.585938 -5.832031 5.457031 -6.082031 5.308594 -6.289062 C 5.144531 -6.523438 4.949219 -6.703125 4.722656 -6.835938 C 4.496094 -6.96875 4.238281 -7.035156 3.945312 -7.035156 C 3.613281 -7.035156 3.304688 -6.960938 3.015625 -6.8125 C 2.730469 -6.664062 2.480469 -6.449219 2.273438 -6.160156 C 2.074219 -5.878906 1.917969 -5.527344 1.804688 -5.097656 C 1.691406 -4.667969 1.632812 -4.1875 1.632812 -3.65625 C 1.632812 -3.1875 1.691406 -2.761719 1.8125 -2.371094 C 1.929688 -1.980469 2.097656 -1.636719 2.320312 -1.339844 C 2.539062 -1.046875 2.796875 -0.820312 3.097656 -0.65625 C 3.398438 -0.488281 3.734375 -0.40625 4.105469 -0.40625 C 4.382812 -0.40625 4.640625 -0.449219 4.871094 -0.539062 C 5.105469 -0.625 5.308594 -0.742188 5.480469 -0.886719 C 5.652344 -1.039062 5.800781 -1.210938 5.933594 -1.402344 C 6.0625 -1.59375 6.167969 -1.804688 6.253906 -2.03125 L 6.640625 -1.84375 C 6.34375 -1.121094 5.953125 -0.601562 5.464844 -0.292969 C 4.976562 0.0195312 4.398438 0.175781 3.722656 0.175781 Z "/>
</g>
<g id="glyph-0-8">
<path d="M 5.328125 -2.59375 C 5.328125 -2.234375 5.273438 -1.882812 5.160156 -1.539062 C 5.046875 -1.191406 4.882812 -0.898438 4.675781 -0.660156 C 4.4375 -0.386719 4.160156 -0.179688 3.847656 -0.046875 C 3.535156 0.0859375 3.183594 0.15625 2.796875 0.15625 C 2.472656 0.15625 2.164062 0.09375 1.871094 -0.0273438 C 1.582031 -0.148438 1.320312 -0.328125 1.09375 -0.5625 C 0.871094 -0.792969 0.691406 -1.074219 0.558594 -1.40625 C 0.425781 -1.734375 0.359375 -2.109375 0.359375 -2.519531 C 0.359375 -3.3125 0.59375 -3.964844 1.054688 -4.46875 C 1.515625 -4.972656 2.125 -5.226562 2.875 -5.226562 C 3.585938 -5.226562 4.171875 -4.988281 4.636719 -4.507812 C 5.097656 -4.027344 5.328125 -3.390625 5.328125 -2.59375 M 4.261719 -2.582031 C 4.261719 -2.839844 4.238281 -3.113281 4.183594 -3.398438 C 4.132812 -3.6875 4.054688 -3.929688 3.953125 -4.128906 C 3.84375 -4.339844 3.699219 -4.511719 3.519531 -4.640625 C 3.339844 -4.769531 3.121094 -4.835938 2.863281 -4.835938 C 2.597656 -4.835938 2.371094 -4.769531 2.183594 -4.640625 C 1.996094 -4.507812 1.84375 -4.328125 1.726562 -4.101562 C 1.617188 -3.894531 1.539062 -3.65625 1.496094 -3.386719 C 1.449219 -3.117188 1.429688 -2.859375 1.429688 -2.609375 C 1.429688 -2.277344 1.453125 -1.972656 1.507812 -1.691406 C 1.5625 -1.414062 1.644531 -1.164062 1.761719 -0.941406 C 1.878906 -0.722656 2.027344 -0.550781 2.203125 -0.425781 C 2.382812 -0.300781 2.601562 -0.238281 2.863281 -0.238281 C 3.292969 -0.238281 3.632812 -0.445312 3.886719 -0.859375 C 4.136719 -1.277344 4.261719 -1.851562 4.261719 -2.582031 Z "/>
</g>
<g id="glyph-0-9">
<path d="M 3.726562 -2.488281 C 3.867188 -2.367188 3.976562 -2.222656 4.050781 -2.0625 C 4.125 -1.898438 4.164062 -1.703125 4.164062 -1.46875 C 4.164062 -1 3.988281 -0.613281 3.636719 -0.3125 C 3.285156 -0.015625 2.828125 0.132812 2.269531 0.132812 C 1.972656 0.132812 1.699219 0.0820312 1.449219 -0.0273438 C 1.203125 -0.132812 1.023438 -0.230469 0.917969 -0.320312 L 0.8125 0.015625 L 0.429688 0.015625 L 0.375 -1.753906 L 0.730469 -1.753906 C 0.757812 -1.617188 0.816406 -1.460938 0.90625 -1.28125 C 0.996094 -1.101562 1.105469 -0.941406 1.230469 -0.796875 C 1.367188 -0.644531 1.527344 -0.515625 1.714844 -0.414062 C 1.902344 -0.308594 2.113281 -0.257812 2.34375 -0.257812 C 2.675781 -0.257812 2.929688 -0.332031 3.109375 -0.484375 C 3.285156 -0.632812 3.375 -0.847656 3.375 -1.128906 C 3.375 -1.273438 3.347656 -1.398438 3.289062 -1.503906 C 3.234375 -1.605469 3.152344 -1.699219 3.042969 -1.777344 C 2.925781 -1.855469 2.789062 -1.929688 2.625 -1.992188 C 2.457031 -2.054688 2.273438 -2.117188 2.070312 -2.179688 C 1.910156 -2.226562 1.730469 -2.292969 1.535156 -2.378906 C 1.335938 -2.464844 1.167969 -2.5625 1.027344 -2.675781 C 0.875 -2.796875 0.75 -2.941406 0.65625 -3.117188 C 0.558594 -3.292969 0.511719 -3.5 0.511719 -3.738281 C 0.511719 -4.152344 0.664062 -4.503906 0.972656 -4.792969 C 1.285156 -5.082031 1.699219 -5.226562 2.214844 -5.226562 C 2.414062 -5.226562 2.621094 -5.199219 2.828125 -5.148438 C 3.035156 -5.097656 3.203125 -5.035156 3.335938 -4.964844 L 3.453125 -5.230469 L 3.824219 -5.230469 L 3.902344 -3.597656 L 3.546875 -3.597656 C 3.472656 -3.964844 3.320312 -4.261719 3.078125 -4.492188 C 2.839844 -4.71875 2.550781 -4.835938 2.207031 -4.835938 C 1.925781 -4.835938 1.703125 -4.765625 1.542969 -4.621094 C 1.378906 -4.480469 1.300781 -4.308594 1.300781 -4.109375 C 1.300781 -3.953125 1.324219 -3.824219 1.378906 -3.722656 C 1.433594 -3.617188 1.511719 -3.53125 1.617188 -3.457031 C 1.722656 -3.390625 1.851562 -3.324219 2.007812 -3.265625 C 2.164062 -3.207031 2.355469 -3.136719 2.585938 -3.0625 C 2.8125 -2.988281 3.027344 -2.90625 3.230469 -2.808594 C 3.429688 -2.710938 3.597656 -2.605469 3.726562 -2.488281 Z "/>
</g>
</g>
</defs>
<g fill="rgb(100%, 100%, 100%)" fill-opacity="1">
<use xlink:href="#glyph-0-0" x="30" y="29.679688"/>
<use xlink:href="#glyph-0-1" x="36" y="29.679688"/>
<use xlink:href="#glyph-0-2" x="39" y="29.679688"/>
<use xlink:href="#glyph-0-3" x="45" y="29.679688"/>
<use xlink:href="#glyph-0-4" x="50" y="29.679688"/>
<use xlink:href="#glyph-0-5" x="53" y="29.679688"/>
<use xlink:href="#glyph-0-2" x="58" y="29.679688"/>
<use xlink:href="#glyph-0-6" x="64" y="29.679688"/>
<use xlink:href="#glyph-0-4" x="70" y="29.679688"/>
<use xlink:href="#glyph-0-7" x="73" y="29.679688"/>
<use xlink:href="#glyph-0-8" x="80" y="29.679688"/>
<use xlink:href="#glyph-0-9" x="86" y="29.679688"/>
<use xlink:href="#glyph-0-1" x="91" y="29.679688"/>
<use xlink:href="#glyph-0-2" x="94" y="29.679688"/>
<use xlink:href="#glyph-0-3" x="100" y="29.679688"/>
</g>
</svg>
