<?xml version="1.0" encoding="UTF-8"?>
<svg xmlns="http://www.w3.org/2000/svg" xmlns:xlink="http://www.w3.org/1999/xlink" width="1280" height="720" viewBox="0 0 1280 720">
<defs>
<g>
<g id="glyph-0-0">
<path d="M 2.773438 2.078125 C 2.417969 2.078125 2.089844 2.035156 1.792969 1.945312 C 1.5 1.855469 1.242188 1.734375 1.03125 1.582031 C 0.820312 1.433594 0.652344 1.257812 0.539062 1.058594 C 0.421875 0.863281 0.363281 0.660156 0.363281 0.449219 C 0.363281 0.265625 0.410156 0.0976562 0.5 -0.0546875 C 0.59375 -0.203125 0.738281 -0.277344 0.941406 -0.277344 C 1.167969 -0.277344 1.339844 -0.222656 1.460938 -0.109375 C 1.582031 0 1.640625 0.128906 1.640625 0.273438 C 1.640625 0.394531 1.621094 0.546875 1.582031 0.734375 C 1.539062 0.921875 1.507812 1.054688 1.488281 1.132812 C 1.511719 1.167969 1.5625 1.214844 1.632812 1.269531 C 1.703125 1.328125 1.789062 1.378906 1.890625 1.425781 C 2.015625 1.480469 2.140625 1.527344 2.273438 1.5625 C 2.40625 1.59375 2.597656 1.613281 2.839844 1.613281 C 3.066406 1.613281 3.289062 1.574219 3.5 1.5 C 3.710938 1.421875 3.894531 1.300781 4.054688 1.132812 C 4.222656 0.957031 4.351562 0.753906 4.445312 0.519531 C 4.539062 0.289062 4.585938 -0.0195312 4.585938 -0.398438 C 4.585938 -0.605469 4.5625 -0.808594 4.519531 -1.007812 C 4.476562 -1.210938 4.394531 -1.382812 4.277344 -1.53125 C 4.160156 -1.679688 4 -1.796875 3.792969 -1.878906 C 3.589844 -1.957031 3.332031 -2 3.019531 -2 L 2.273438 -2 L 2.273438 -2.65625 L 2.769531 -2.65625 C 3.296875 -2.65625 3.675781 -2.800781 3.90625 -3.085938 C 4.140625 -3.375 4.253906 -3.8125 4.253906 -4.390625 C 4.253906 -4.867188 4.144531 -5.226562 3.917969 -5.464844 C 3.695312 -5.707031 3.375 -5.828125 2.964844 -5.828125 C 2.765625 -5.828125 2.605469 -5.804688 2.476562 -5.757812 C 2.347656 -5.707031 2.246094 -5.664062 2.164062 -5.617188 C 2.070312 -5.5625 1.992188 -5.503906 1.929688 -5.441406 C 1.871094 -5.375 1.824219 -5.328125 1.792969 -5.296875 C 1.820312 -5.175781 1.851562 -5.027344 1.890625 -4.851562 C 1.929688 -4.675781 1.949219 -4.507812 1.949219 -4.347656 C 1.949219 -4.207031 1.886719 -4.078125 1.769531 -3.96875 C 1.648438 -3.855469 1.472656 -3.800781 1.242188 -3.800781 C 1.039062 -3.800781 0.894531 -3.871094 0.800781 -4.015625 C 0.707031 -4.160156 0.660156 -4.328125 0.660156 -4.515625 C 0.660156 -4.714844 0.714844 -4.917969 0.824219 -5.121094 C 0.9375 -5.328125 1.097656 -5.519531 1.316406 -5.695312 C 1.53125 -5.875 1.796875 -6.019531 2.109375 -6.128906 C 2.417969 -6.238281 2.777344 -6.292969 3.183594 -6.292969 C 3.652344 -6.292969 4.039062 -6.226562 4.34375 -6.085938 C 4.648438 -5.949219 4.890625 -5.78125 5.0625 -5.582031 C 5.234375 -5.390625 5.351562 -5.1875 5.417969 -4.972656 C 5.480469 -4.761719 5.515625 -4.578125 5.515625 -4.425781 C 5.515625 -4.238281 5.488281 -4.046875 5.433594 -3.855469 C 5.382812 -3.660156 5.292969 -3.484375 5.171875 -3.320312 C 5.039062 -3.144531 4.863281 -2.980469 4.644531 -2.835938 C 4.425781 -2.6875 4.152344 -2.570312 3.824219 -2.476562 L 3.824219 -2.386719 C 4.035156 -2.367188 4.261719 -2.320312 4.503906 -2.246094 C 4.746094 -2.167969 4.960938 -2.054688 5.15625 -1.910156 C 5.355469 -1.753906 5.523438 -1.550781 5.652344 -1.308594 C 5.78125 -1.0625 5.84375 -0.75 5.84375 -0.375 C 5.84375 0.351562 5.550781 0.945312 4.96875 1.398438 C 4.382812 1.851562 3.652344 2.078125 2.773438 2.078125 Z "/>
</g>
</g>
</defs>
<g fill="rgb(100%, 100%, 100%)" fill-opacity="1">
<use xlink:href="#glyph-0-0" x="30" y="30.697266"/>
</g>
</svg>
