<?xml version="1.0" encoding="UTF-8"?>
<svg xmlns="http://www.w3.org/2000/svg" xmlns:xlink="http://www.w3.org/1999/xlink" width="854" height="480" viewBox="0 0 854 480">
<defs>
<g>
<g id="glyph-0-0">
<path d="M 2.519531 0 L 1.472656 0 L 1.472656 -0.144531 C 1.507812 -0.144531 1.542969 -0.148438 1.582031 -0.152344 C 1.621094 -0.15625 1.65625 -0.160156 1.683594 -0.167969 C 1.722656 -0.183594 1.753906 -0.203125 1.773438 -0.238281 C 1.792969 -0.269531 1.800781 -0.3125 1.800781 -0.363281 L 1.800781 -1.464844 C 1.800781 -1.617188 1.765625 -1.734375 1.695312 -1.816406 C 1.621094 -1.898438 1.535156 -1.941406 1.429688 -1.941406 C 1.355469 -1.941406 1.285156 -1.929688 1.21875 -1.902344 C 1.15625 -1.878906 1.101562 -1.851562 1.050781 -1.816406 C 1.003906 -1.78125 0.964844 -1.746094 0.9375 -1.707031 C 0.90625 -1.671875 0.886719 -1.640625 0.875 -1.617188 L 0.875 -0.386719 C 0.875 -0.335938 0.882812 -0.296875 0.90625 -0.265625 C 0.925781 -0.234375 0.957031 -0.207031 0.996094 -0.191406 C 1.027344 -0.175781 1.058594 -0.164062 1.09375 -0.160156 C 1.128906 -0.152344 1.167969 -0.144531 1.203125 -0.144531 L 1.203125 0 L 0.15625 0 L 0.15625 -0.144531 C 0.191406 -0.144531 0.222656 -0.148438 0.257812 -0.152344 C 0.292969 -0.15625 0.324219 -0.160156 0.351562 -0.167969 C 0.390625 -0.183594 0.421875 -0.203125 0.441406 -0.238281 C 0.460938 -0.269531 0.472656 -0.3125 0.472656 -0.363281 L 0.472656 -1.683594 C 0.472656 -1.734375 0.460938 -1.777344 0.4375 -1.820312 C 0.417969 -1.859375 0.390625 -1.894531 0.351562 -1.921875 C 0.324219 -1.9375 0.292969 -1.949219 0.253906 -1.957031 C 0.214844 -1.964844 0.175781 -1.972656 0.132812 -1.976562 L 0.132812 -2.117188 L 0.84375 -2.164062 L 0.875 -2.136719 L 0.875 -1.832031 L 0.886719 -1.832031 C 0.921875 -1.867188 0.964844 -1.910156 1.015625 -1.957031 C 1.066406 -2.007812 1.117188 -2.046875 1.164062 -2.078125 C 1.214844 -2.113281 1.28125 -2.140625 1.355469 -2.164062 C 1.429688 -2.1875 1.511719 -2.199219 1.605469 -2.199219 C 1.808594 -2.199219 1.960938 -2.132812 2.058594 -2.007812 C 2.160156 -1.878906 2.210938 -1.707031 2.210938 -1.496094 L 2.210938 -0.382812 C 2.210938 -0.332031 2.21875 -0.289062 2.234375 -0.257812 C 2.253906 -0.226562 2.28125 -0.203125 2.324219 -0.1875 C 2.359375 -0.171875 2.390625 -0.160156 2.414062 -0.15625 C 2.4375 -0.152344 2.472656 -0.144531 2.519531 -0.144531 Z "/>
</g>
<g id="glyph-0-1">
<path d="M 2.523438 -1.480469 L 0.335938 -1.480469 L 0.335938 -1.753906 L 2.523438 -1.753906 L 2.523438 -1.480469 M 2.523438 -0.675781 L 0.335938 -0.675781 L 0.335938 -0.945312 L 2.523438 -0.945312 Z "/>
</g>
<g id="glyph-0-2">
<path d="M 2.273438 0 L 0.238281 0 L 0.238281 -0.296875 C 0.277344 -0.339844 0.332031 -0.390625 0.402344 -0.449219 C 0.472656 -0.503906 0.554688 -0.5625 0.648438 -0.628906 C 0.707031 -0.667969 0.777344 -0.710938 0.855469 -0.757812 C 0.9375 -0.800781 1.03125 -0.851562 1.132812 -0.90625 C 1.246094 -0.96875 1.335938 -1.023438 1.394531 -1.070312 C 1.457031 -1.113281 1.515625 -1.171875 1.566406 -1.238281 C 1.597656 -1.285156 1.625 -1.339844 1.644531 -1.40625 C 1.664062 -1.476562 1.675781 -1.570312 1.675781 -1.695312 C 1.675781 -1.875 1.625 -2.007812 1.53125 -2.09375 C 1.433594 -2.175781 1.308594 -2.21875 1.15625 -2.21875 C 1.0625 -2.21875 0.972656 -2.203125 0.890625 -2.164062 C 0.804688 -2.128906 0.742188 -2.078125 0.699219 -2.011719 C 0.710938 -1.964844 0.722656 -1.910156 0.738281 -1.847656 C 0.753906 -1.78125 0.761719 -1.722656 0.761719 -1.660156 C 0.761719 -1.605469 0.738281 -1.554688 0.691406 -1.511719 C 0.648438 -1.472656 0.582031 -1.449219 0.492188 -1.449219 C 0.417969 -1.449219 0.363281 -1.472656 0.324219 -1.523438 C 0.285156 -1.574219 0.265625 -1.640625 0.265625 -1.726562 C 0.265625 -1.804688 0.285156 -1.882812 0.328125 -1.960938 C 0.375 -2.039062 0.433594 -2.113281 0.515625 -2.179688 C 0.597656 -2.242188 0.695312 -2.296875 0.8125 -2.335938 C 0.929688 -2.378906 1.054688 -2.398438 1.191406 -2.398438 C 1.488281 -2.398438 1.722656 -2.332031 1.898438 -2.199219 C 2.070312 -2.066406 2.160156 -1.890625 2.160156 -1.667969 C 2.160156 -1.5625 2.144531 -1.46875 2.113281 -1.382812 C 2.082031 -1.292969 2.03125 -1.21875 1.960938 -1.152344 C 1.886719 -1.078125 1.796875 -1.015625 1.691406 -0.960938 C 1.589844 -0.910156 1.433594 -0.835938 1.222656 -0.742188 C 1.097656 -0.683594 0.980469 -0.625 0.871094 -0.566406 C 0.761719 -0.503906 0.671875 -0.445312 0.601562 -0.386719 L 2.273438 -0.386719 Z "/>
</g>
<g id="glyph-0-3">
<path d="M 1.753906 0 L 0.292969 0 L 0.292969 -0.152344 C 0.335938 -0.15625 0.402344 -0.164062 0.496094 -0.171875 C 0.585938 -0.183594 0.652344 -0.191406 0.6875 -0.203125 C 0.730469 -0.214844 0.765625 -0.238281 0.789062 -0.273438 C 0.8125 -0.304688 0.824219 -0.355469 0.824219 -0.417969 L 0.824219 -1.941406 L 0.285156 -1.941406 L 0.285156 -2.125 L 0.402344 -2.125 C 0.558594 -2.125 0.699219 -2.152344 0.824219 -2.210938 C 0.945312 -2.269531 1.035156 -2.332031 1.089844 -2.398438 L 1.269531 -2.398438 C 1.265625 -2.304688 1.261719 -2.195312 1.257812 -2.066406 C 1.253906 -1.941406 1.25 -1.828125 1.25 -1.730469 L 1.25 -0.441406 C 1.25 -0.390625 1.261719 -0.347656 1.285156 -0.308594 C 1.304688 -0.265625 1.339844 -0.238281 1.378906 -0.21875 C 1.417969 -0.203125 1.480469 -0.1875 1.566406 -0.175781 C 1.648438 -0.164062 1.714844 -0.15625 1.753906 -0.152344 Z "/>
</g>
</g>
</defs>
<g fill="rgb(98.823529%, 38.431373%, 33.333333%)" fill-opacity="1">
<use xlink:href="#glyph-0-0" x="30" y="24.074219"/>
<use xlink:href="#glyph-0-1" x="33" y="24.074219"/>
<use xlink:href="#glyph-0-2" x="36" y="24.074219"/>
<use xlink:href="#glyph-0-3" x="38" y="24.074219"/>
</g>
</svg>
