<?xml version="1.0" encoding="UTF-8"?>
<svg xmlns="http://www.w3.org/2000/svg" xmlns:xlink="http://www.w3.org/1999/xlink" width="1920" height="1080" viewBox="0 0 1920 1080">
<defs>
<g>
<g id="glyph-0-0">
<path d="M 4.703125 0.222656 C 4.152344 0.222656 3.625 0.113281 3.121094 -0.105469 C 2.613281 -0.320312 2.167969 -0.632812 1.777344 -1.042969 C 1.390625 -1.449219 1.082031 -1.949219 0.851562 -2.539062 C 0.621094 -3.125 0.507812 -3.789062 0.507812 -4.527344 C 0.507812 -5.265625 0.621094 -5.9375 0.847656 -6.539062 C 1.070312 -7.140625 1.382812 -7.65625 1.78125 -8.089844 C 2.175781 -8.523438 2.644531 -8.855469 3.179688 -9.089844 C 3.71875 -9.324219 4.292969 -9.441406 4.90625 -9.441406 C 5.359375 -9.441406 5.773438 -9.382812 6.140625 -9.269531 C 6.507812 -9.15625 6.859375 -9 7.195312 -8.796875 L 7.460938 -9.238281 L 7.980469 -9.238281 L 8.039062 -5.945312 L 7.507812 -5.945312 C 7.4375 -6.265625 7.332031 -6.613281 7.195312 -6.988281 C 7.054688 -7.363281 6.894531 -7.683594 6.707031 -7.941406 C 6.5 -8.238281 6.25 -8.46875 5.964844 -8.636719 C 5.679688 -8.804688 5.351562 -8.886719 4.984375 -8.886719 C 4.5625 -8.886719 4.171875 -8.792969 3.808594 -8.605469 C 3.449219 -8.417969 3.132812 -8.144531 2.871094 -7.777344 C 2.617188 -7.425781 2.421875 -6.980469 2.277344 -6.4375 C 2.136719 -5.894531 2.0625 -5.289062 2.0625 -4.617188 C 2.0625 -4.027344 2.136719 -3.488281 2.289062 -2.992188 C 2.4375 -2.5 2.652344 -2.066406 2.929688 -1.695312 C 3.207031 -1.324219 3.535156 -1.035156 3.914062 -0.828125 C 4.292969 -0.617188 4.71875 -0.515625 5.183594 -0.515625 C 5.535156 -0.515625 5.859375 -0.570312 6.152344 -0.679688 C 6.449219 -0.789062 6.703125 -0.9375 6.921875 -1.121094 C 7.136719 -1.3125 7.328125 -1.527344 7.492188 -1.769531 C 7.660156 -2.015625 7.792969 -2.277344 7.898438 -2.566406 L 8.386719 -2.332031 C 8.011719 -1.414062 7.519531 -0.761719 6.902344 -0.367188 C 6.285156 0.0234375 5.554688 0.222656 4.703125 0.222656 Z "/>
</g>
<g id="glyph-0-1">
<path d="M 6.550781 -0.117188 C 6.34375 -0.0429688 6.167969 0.015625 6.011719 0.0625 C 5.859375 0.105469 5.683594 0.128906 5.488281 0.128906 C 5.148438 0.128906 4.878906 0.0507812 4.679688 -0.105469 C 4.476562 -0.265625 4.347656 -0.496094 4.289062 -0.800781 L 4.25 -0.800781 C 3.96875 -0.488281 3.667969 -0.25 3.34375 -0.0859375 C 3.019531 0.0820312 2.628906 0.164062 2.175781 0.164062 C 1.691406 0.164062 1.296875 0.015625 0.984375 -0.28125 C 0.675781 -0.574219 0.519531 -0.960938 0.519531 -1.4375 C 0.519531 -1.6875 0.554688 -1.90625 0.625 -2.101562 C 0.695312 -2.296875 0.796875 -2.472656 0.9375 -2.628906 C 1.046875 -2.761719 1.1875 -2.875 1.367188 -2.976562 C 1.546875 -3.082031 1.710938 -3.160156 1.867188 -3.222656 C 2.0625 -3.296875 2.460938 -3.433594 3.054688 -3.632812 C 3.652344 -3.832031 4.054688 -3.988281 4.265625 -4.101562 L 4.265625 -4.746094 C 4.265625 -4.800781 4.253906 -4.910156 4.226562 -5.070312 C 4.203125 -5.230469 4.152344 -5.382812 4.074219 -5.527344 C 3.988281 -5.6875 3.867188 -5.828125 3.707031 -5.945312 C 3.550781 -6.066406 3.324219 -6.125 3.035156 -6.125 C 2.835938 -6.125 2.648438 -6.09375 2.476562 -6.023438 C 2.304688 -5.957031 2.183594 -5.886719 2.117188 -5.8125 C 2.117188 -5.726562 2.136719 -5.597656 2.179688 -5.429688 C 2.21875 -5.261719 2.238281 -5.105469 2.238281 -4.960938 C 2.238281 -4.808594 2.171875 -4.671875 2.035156 -4.542969 C 1.898438 -4.417969 1.707031 -4.355469 1.464844 -4.355469 C 1.246094 -4.355469 1.089844 -4.433594 0.984375 -4.585938 C 0.882812 -4.742188 0.832031 -4.914062 0.832031 -5.105469 C 0.832031 -5.304688 0.902344 -5.496094 1.046875 -5.675781 C 1.1875 -5.859375 1.371094 -6.023438 1.59375 -6.164062 C 1.789062 -6.285156 2.027344 -6.390625 2.304688 -6.472656 C 2.582031 -6.558594 2.855469 -6.601562 3.117188 -6.601562 C 3.484375 -6.601562 3.800781 -6.578125 4.070312 -6.527344 C 4.34375 -6.476562 4.589844 -6.371094 4.8125 -6.203125 C 5.03125 -6.042969 5.199219 -5.824219 5.316406 -5.550781 C 5.429688 -5.273438 5.488281 -4.917969 5.488281 -4.484375 C 5.488281 -3.863281 5.480469 -3.316406 5.46875 -2.835938 C 5.457031 -2.355469 5.449219 -1.832031 5.449219 -1.261719 C 5.449219 -1.09375 5.476562 -0.960938 5.535156 -0.859375 C 5.59375 -0.757812 5.6875 -0.675781 5.808594 -0.605469 C 5.871094 -0.566406 5.976562 -0.542969 6.117188 -0.539062 C 6.257812 -0.535156 6.402344 -0.535156 6.550781 -0.535156 L 6.550781 -0.117188 M 4.277344 -3.554688 C 3.910156 -3.445312 3.585938 -3.339844 3.308594 -3.234375 C 3.03125 -3.128906 2.769531 -3 2.53125 -2.84375 C 2.316406 -2.695312 2.144531 -2.519531 2.019531 -2.316406 C 1.890625 -2.117188 1.828125 -1.875 1.828125 -1.597656 C 1.828125 -1.234375 1.921875 -0.972656 2.113281 -0.800781 C 2.300781 -0.632812 2.542969 -0.546875 2.832031 -0.546875 C 3.140625 -0.546875 3.410156 -0.621094 3.644531 -0.773438 C 3.878906 -0.921875 4.078125 -1.097656 4.238281 -1.304688 Z "/>
</g>
<g id="glyph-0-2">
<path d="M 3.476562 0 L 0.34375 0 L 0.34375 -0.429688 C 0.445312 -0.4375 0.550781 -0.449219 0.664062 -0.457031 C 0.777344 -0.46875 0.871094 -0.484375 0.945312 -0.507812 C 1.066406 -0.546875 1.15625 -0.617188 1.21875 -0.714844 C 1.277344 -0.8125 1.308594 -0.9375 1.308594 -1.09375 L 1.308594 -8.535156 C 1.308594 -8.691406 1.273438 -8.835938 1.207031 -8.972656 C 1.140625 -9.109375 1.050781 -9.21875 0.945312 -9.296875 C 0.867188 -9.347656 0.722656 -9.398438 0.515625 -9.441406 C 0.304688 -9.484375 0.140625 -9.507812 0.0117188 -9.519531 L 0.0117188 -9.933594 L 2.429688 -10.078125 L 2.519531 -9.980469 L 2.519531 -1.171875 C 2.519531 -1.019531 2.546875 -0.894531 2.605469 -0.796875 C 2.660156 -0.699219 2.75 -0.625 2.878906 -0.574219 C 2.972656 -0.53125 3.066406 -0.496094 3.160156 -0.476562 C 3.253906 -0.453125 3.359375 -0.4375 3.476562 -0.429688 Z "/>
</g>
<g id="glyph-0-3">
<path d="M 3.4375 0.167969 C 2.507812 0.167969 1.78125 -0.140625 1.257812 -0.753906 C 0.730469 -1.371094 0.46875 -2.199219 0.46875 -3.234375 C 0.46875 -3.6875 0.539062 -4.109375 0.679688 -4.5 C 0.820312 -4.894531 1.027344 -5.25 1.296875 -5.574219 C 1.550781 -5.882812 1.871094 -6.128906 2.257812 -6.316406 C 2.644531 -6.507812 3.066406 -6.601562 3.523438 -6.601562 C 4.152344 -6.601562 4.664062 -6.449219 5.058594 -6.148438 C 5.453125 -5.847656 5.652344 -5.4375 5.652344 -4.914062 C 5.652344 -4.699219 5.597656 -4.507812 5.496094 -4.339844 C 5.390625 -4.171875 5.21875 -4.089844 4.980469 -4.089844 C 4.722656 -4.089844 4.527344 -4.152344 4.382812 -4.285156 C 4.242188 -4.414062 4.171875 -4.558594 4.171875 -4.71875 C 4.171875 -4.914062 4.199219 -5.113281 4.25 -5.316406 C 4.304688 -5.523438 4.332031 -5.675781 4.34375 -5.769531 C 4.265625 -5.902344 4.148438 -5.992188 3.996094 -6.039062 C 3.839844 -6.085938 3.675781 -6.105469 3.5 -6.105469 C 3.289062 -6.105469 3.09375 -6.0625 2.902344 -5.972656 C 2.714844 -5.882812 2.53125 -5.71875 2.355469 -5.480469 C 2.195312 -5.265625 2.066406 -4.972656 1.964844 -4.601562 C 1.867188 -4.234375 1.816406 -3.792969 1.816406 -3.28125 C 1.816406 -2.472656 1.996094 -1.816406 2.351562 -1.304688 C 2.710938 -0.796875 3.179688 -0.539062 3.761719 -0.539062 C 4.179688 -0.539062 4.53125 -0.644531 4.816406 -0.847656 C 5.101562 -1.054688 5.363281 -1.359375 5.605469 -1.769531 L 6.023438 -1.496094 C 5.734375 -0.984375 5.359375 -0.578125 4.890625 -0.28125 C 4.421875 0.0195312 3.9375 0.167969 3.4375 0.167969 Z "/>
</g>
<g id="glyph-0-4">
<path d="M 7.351562 -0.117188 L 5.253906 0.0273438 L 5.15625 -0.0664062 L 5.15625 -0.878906 L 5.117188 -0.878906 C 5.011719 -0.769531 4.894531 -0.652344 4.765625 -0.53125 C 4.636719 -0.40625 4.488281 -0.296875 4.316406 -0.195312 C 4.121094 -0.078125 3.933594 0.0117188 3.753906 0.0703125 C 3.570312 0.132812 3.3125 0.164062 2.980469 0.164062 C 2.410156 0.164062 1.980469 -0.0234375 1.683594 -0.394531 C 1.386719 -0.765625 1.238281 -1.300781 1.238281 -2.007812 L 1.238281 -5.078125 C 1.238281 -5.234375 1.207031 -5.367188 1.148438 -5.472656 C 1.089844 -5.578125 1.003906 -5.671875 0.890625 -5.75 C 0.8125 -5.800781 0.710938 -5.839844 0.59375 -5.863281 C 0.476562 -5.886719 0.351562 -5.902344 0.222656 -5.910156 L 0.222656 -6.339844 L 2.363281 -6.496094 L 2.460938 -6.40625 L 2.460938 -1.945312 C 2.460938 -1.480469 2.566406 -1.132812 2.773438 -0.898438 C 2.980469 -0.664062 3.230469 -0.546875 3.523438 -0.546875 C 3.761719 -0.546875 3.972656 -0.582031 4.160156 -0.65625 C 4.347656 -0.730469 4.503906 -0.816406 4.628906 -0.917969 C 4.746094 -1.007812 4.847656 -1.105469 4.9375 -1.207031 C 5.027344 -1.308594 5.09375 -1.402344 5.144531 -1.488281 L 5.144531 -5.125 C 5.144531 -5.269531 5.113281 -5.394531 5.050781 -5.503906 C 4.992188 -5.617188 4.90625 -5.710938 4.796875 -5.789062 C 4.71875 -5.839844 4.605469 -5.871094 4.449219 -5.882812 C 4.296875 -5.894531 4.125 -5.902344 3.933594 -5.910156 L 3.933594 -6.339844 L 6.269531 -6.496094 L 6.367188 -6.40625 L 6.367188 -1.3125 C 6.367188 -1.167969 6.398438 -1.042969 6.457031 -0.9375 C 6.519531 -0.832031 6.605469 -0.742188 6.710938 -0.671875 C 6.789062 -0.621094 6.882812 -0.589844 6.992188 -0.574219 C 7.101562 -0.5625 7.21875 -0.550781 7.351562 -0.546875 Z "/>
</g>
<g id="glyph-0-5">
<path d="M 4.707031 -3.144531 C 4.886719 -2.988281 5.023438 -2.808594 5.117188 -2.605469 C 5.210938 -2.398438 5.261719 -2.152344 5.261719 -1.855469 C 5.261719 -1.261719 5.039062 -0.773438 4.59375 -0.398438 C 4.148438 -0.0195312 3.570312 0.167969 2.863281 0.167969 C 2.492188 0.167969 2.148438 0.101562 1.832031 -0.03125 C 1.519531 -0.167969 1.292969 -0.289062 1.160156 -0.402344 L 1.027344 0.0195312 L 0.539062 0.0195312 L 0.476562 -2.214844 L 0.925781 -2.214844 C 0.960938 -2.042969 1.03125 -1.84375 1.144531 -1.617188 C 1.257812 -1.390625 1.394531 -1.1875 1.554688 -1.003906 C 1.726562 -0.8125 1.929688 -0.652344 2.164062 -0.523438 C 2.402344 -0.390625 2.667969 -0.324219 2.960938 -0.324219 C 3.378906 -0.324219 3.699219 -0.421875 3.925781 -0.609375 C 4.152344 -0.800781 4.265625 -1.070312 4.265625 -1.425781 C 4.265625 -1.609375 4.226562 -1.765625 4.15625 -1.898438 C 4.085938 -2.03125 3.980469 -2.144531 3.839844 -2.246094 C 3.699219 -2.347656 3.523438 -2.4375 3.3125 -2.515625 C 3.105469 -2.597656 2.875 -2.675781 2.617188 -2.753906 C 2.414062 -2.816406 2.1875 -2.898438 1.9375 -3.003906 C 1.6875 -3.109375 1.472656 -3.234375 1.296875 -3.378906 C 1.105469 -3.53125 0.949219 -3.71875 0.828125 -3.9375 C 0.707031 -4.160156 0.644531 -4.421875 0.644531 -4.71875 C 0.644531 -5.246094 0.839844 -5.691406 1.230469 -6.054688 C 1.621094 -6.417969 2.144531 -6.601562 2.800781 -6.601562 C 3.050781 -6.601562 3.308594 -6.570312 3.570312 -6.503906 C 3.832031 -6.4375 4.046875 -6.359375 4.210938 -6.269531 L 4.363281 -6.609375 L 4.832031 -6.609375 L 4.929688 -4.542969 L 4.480469 -4.542969 C 4.386719 -5.007812 4.191406 -5.382812 3.890625 -5.671875 C 3.589844 -5.960938 3.21875 -6.105469 2.785156 -6.105469 C 2.429688 -6.105469 2.152344 -6.015625 1.945312 -5.839844 C 1.742188 -5.660156 1.640625 -5.441406 1.640625 -5.1875 C 1.640625 -4.992188 1.675781 -4.832031 1.742188 -4.699219 C 1.808594 -4.570312 1.910156 -4.460938 2.042969 -4.367188 C 2.175781 -4.28125 2.339844 -4.199219 2.535156 -4.125 C 2.734375 -4.046875 2.976562 -3.960938 3.269531 -3.867188 C 3.554688 -3.777344 3.824219 -3.667969 4.078125 -3.546875 C 4.332031 -3.425781 4.542969 -3.292969 4.707031 -3.144531 Z "/>
</g>
</g>
</defs>
<g fill="rgb(100%, 100%, 100%)" fill-opacity="1">
<use xlink:href="#glyph-0-0" x="30" y="32.226562"/>
<use xlink:href="#glyph-0-1" x="39" y="32.226562"/>
<use xlink:href="#glyph-0-2" x="46" y="32.226562"/>
<use xlink:href="#glyph-0-3" x="50" y="32.226562"/>
<use xlink:href="#glyph-0-4" x="56" y="32.226562"/>
<use xlink:href="#glyph-0-2" x="64" y="32.226562"/>
<use xlink:href="#glyph-0-4" x="68" y="32.226562"/>
<use xlink:href="#glyph-0-5" x="76" y="32.226562"/>
</g>
</svg>
