<?xml version="1.0" encoding="UTF-8"?>
<svg xmlns="http://www.w3.org/2000/svg" xmlns:xlink="http://www.w3.org/1999/xlink" width="1280" height="720" viewBox="0 0 1280 720">
<defs>
<g>
<g id="glyph-0-0">
<path d="M 8.003906 -4.453125 C 8.421875 -4.125 8.769531 -3.699219 9.042969 -3.179688 C 9.320312 -2.660156 9.457031 -2.011719 9.457031 -1.234375 C 9.457031 0.125 8.992188 1.25 8.058594 2.136719 C 7.128906 3.023438 5.949219 3.464844 4.519531 3.464844 C 3.410156 3.464844 2.476562 3.203125 1.707031 2.675781 C 0.941406 2.152344 0.558594 1.542969 0.558594 0.84375 C 0.558594 0.523438 0.640625 0.242188 0.796875 0 C 0.957031 -0.242188 1.199219 -0.359375 1.527344 -0.359375 C 1.910156 -0.359375 2.199219 -0.261719 2.398438 -0.0625 C 2.597656 0.136719 2.695312 0.355469 2.695312 0.589844 C 2.695312 0.792969 2.660156 1.042969 2.59375 1.347656 C 2.523438 1.652344 2.46875 1.875 2.429688 2.023438 C 2.480469 2.066406 2.5625 2.125 2.675781 2.203125 C 2.792969 2.277344 2.925781 2.351562 3.085938 2.421875 C 3.25 2.492188 3.449219 2.550781 3.6875 2.605469 C 3.925781 2.660156 4.203125 2.6875 4.519531 2.6875 C 4.925781 2.6875 5.308594 2.605469 5.667969 2.441406 C 6.027344 2.277344 6.332031 2.03125 6.578125 1.707031 C 6.851562 1.355469 7.054688 0.949219 7.191406 0.5 C 7.328125 0.046875 7.394531 -0.527344 7.394531 -1.226562 C 7.394531 -2.117188 7.148438 -2.855469 6.652344 -3.441406 C 6.152344 -4.027344 5.5 -4.320312 4.691406 -4.320312 C 4.183594 -4.320312 3.710938 -4.226562 3.269531 -4.035156 C 2.832031 -3.84375 2.4375 -3.527344 2.089844 -3.085938 L 1.453125 -3.332031 L 2.257812 -10.1875 L 9.058594 -10.1875 L 9.058594 -8.496094 L 3.027344 -8.496094 L 2.53125 -4.46875 C 2.816406 -4.671875 3.191406 -4.875 3.660156 -5.074219 C 4.125 -5.273438 4.636719 -5.375 5.191406 -5.375 C 5.652344 -5.375 6.132812 -5.300781 6.628906 -5.160156 C 7.128906 -5.019531 7.585938 -4.78125 8.003906 -4.453125 Z "/>
</g>
</g>
</defs>
<g fill="rgb(100%, 100%, 100%)" fill-opacity="1">
<use xlink:href="#glyph-0-0" x="30" y="37.829102"/>
</g>
</svg>
